<svg id="Layer_3" data-name="Layer 3" xmlns="http://www.w3.org/2000/svg" xmlns:xlink="http://www.w3.org/1999/xlink" viewBox="0 0 217.25 300.96"><defs><style>.cls-1{fill:none;}.cls-2{fill:#fef9f8;}.cls-3{clip-path:url(#clip-path);}.cls-4{fill:#ffefee;}.cls-5{fill:#ffeeed;}.cls-6{fill:#fff2f1;}.cls-7{fill:#ffc6c1;}.cls-8{fill:#ffc2bd;}.cls-9{fill:#ffd4d1;}.cls-10{fill:#ffcdca;}.cls-11{fill:#ffc0bb;}.cls-12{fill:#ffebe9;}.cls-13{fill:#ffc6c2;}.cls-14{fill:#ffcac5;}.cls-15{fill:#ffc3be;}.cls-16{fill:#ffe9e7;}.cls-17{fill:#ffbdb8;}</style><clipPath id="clip-path" transform="translate(-515.1 -34.98)"><rect class="cls-1" x="515.1" y="34.98" width="160.89" height="160.89"/></clipPath></defs><title>empty_avatar</title><rect class="cls-2" width="160.89" height="160.89"/><g class="cls-3"><path class="cls-4" d="M560.5,71v.26c0,4.9,3.32,10.69,6,15.78,1.93,1.8,5.45,3,8.82,3.48l.65.09c3,.4,5.76.31,7.16-.26,3.19-1.32,4.29-4.29,4.62-10.57a34.61,34.61,0,0,0-6.06-20.26c-.18-.25-.37-.48-.56-.71a12.79,12.79,0,0,0-9.25-3.5c-3.91.06-5.68,1.54-9.15,4.87-.13.38-.33,1-.57,1.79A37,37,0,0,0,560.5,71Z" transform="translate(-515.1 -34.98)"/><path class="cls-5" d="M585.52,82.33c1.19-.26,23.81-4.5,45.19-8.44l5.31-1c14.54-2.66,27.58-5,31.57-5.59,4.39-.64,9.18-1.42,13.53-2.25,1.8-.34,3.51-.69,5.1-1.05a42.52,42.52,0,0,0,7.95-2.33,24.85,24.85,0,0,0,12-12.36,55.79,55.79,0,0,0,3.38,14.18,68.62,68.62,0,0,0,7.11,14c-3.82-2.56-11.73-6.24-27.91-5l-2.17.18-4.86.46c-10.87,1.1-28.58,3.14-46,5.2L631,79h0c-25.08,3-48.33,5.85-48.33,5.85A4.07,4.07,0,0,1,585.52,82.33Z" transform="translate(-515.1 -34.98)"/><path class="cls-6" d="M706.05,55.33S704.89,62.8,710,68c0,0-36.33,1.55-58.29,4.53,0,0,31.37-5.7,41.44-8.62S706.05,55.33,706.05,55.33Z" transform="translate(-515.1 -34.98)"/><path class="cls-7" d="M527.23,58.63h0a5.49,5.49,0,0,0,.67,1.08l.29.36.37.38a3.25,3.25,0,0,0,.27.25A7.64,7.64,0,0,0,531,62h0a9.45,9.45,0,0,0,2.68.67,13.61,13.61,0,0,0,3.23,0c7.68-.93,7.84-6.84,8.67-9.24A5.6,5.6,0,0,1,549,49.72a5.12,5.12,0,0,1,1.6-.24,6.44,6.44,0,0,1,1.2.11,2.25,2.25,0,0,1,0-.22,4.44,4.44,0,0,1,.36-1.24,3.06,3.06,0,0,1,.15-.3,4.67,4.67,0,0,1,1-1.27l.14-.11a5,5,0,0,0-.85-.57h0c-1.29-.75-4.19-2.06-9.63-2.91-8-1.24-10.41,1.81-11.31,5.11S529.46,58.22,527.23,58.63Z" transform="translate(-515.1 -34.98)"/><path class="cls-8" d="M527.24,58.65c.11.26,2.19,4.93,9.65,4,7.68-.93,7.84-6.84,8.67-9.24a5.32,5.32,0,0,1,5.08-4,6.44,6.44,0,0,1,1.2.11,4.63,4.63,0,0,1,.92-2.37c-5-1.35-8.17-1.28-10.78,2.37C539.64,52.87,534.37,60.07,527.24,58.65Z" transform="translate(-515.1 -34.98)"/><path class="cls-9" d="M525.51,164.89c8.09,6.44,19.89,12.11,19.89,12.11a7.22,7.22,0,0,0,2.07-1.23c1.19-.91,2.57-2.13,3.62-3.11s1.68-1.61,1.68-1.61c-8.32-7.7-18.18-22.84-18.18-22.84,4.79-3,14.86-13.37,14.86-13.37.33,3.3,8.92,17.17,11.45,23.61a12.56,12.56,0,0,1,.27,8.61,10.82,10.82,0,0,1-1.32,2.78s-.34.43-.92,1.21c-2.46,3.29-9.17,12.85-12.46,22.9-4.05,12.43,0,26.25,0,26.25l1.68-2.94,4.43-7.79s4.31,13.79,6.89,16.31a1.5,1.5,0,0,0,.53.36c2.48.83,7.27-12.22,7.27-12.22s5.3,8.36,8.45,12.8a12.34,12.34,0,0,0,2.2,2.72c.53.1,2.73-4.89,4.46-9,1.23-3,2.23-5.49,2.23-5.49s13.87,15.52,15,15.19,3.3-14.53,3.3-14.53c3.65,2.29,10.51,6.48,15.09,9.27l4.56,2.78s-7.1-19.65-11.06-28.73c-2.87-6.57-8.41-16.58-11.25-21.63-1.09-1.94-1.79-3.14-1.79-3.14l.18-.85c.62-3.06,2.82-14,4.78-26.89a84.61,84.61,0,0,0,1-12.64h0a42.27,42.27,0,0,0-1-10.63c10.79,6.27,22.43,7.11,27.4,7.15.16-2.71.3-5.09.41-7,0-.18,0-.38,0-.57.16-3.1.24-6.76.27-10.63l-16.91-7.56c-.42.4-1,1-1.73,1.6a29,29,0,0,1-3.79,3l-3.55-2.47-3.13,2.47,3.22,3.3a73.38,73.38,0,0,1-7,3.06L597,113s-4.78,2.31-6.93,2.48l.66,4.21-6.6,1.16L583,116.75l-4.52.72-.33.05-2.92.47-.57,3.71-7.13-.41.36-3.63-6.59-1.24-1.59,3.8a47.43,47.43,0,0,1-6.68-1.49l1.24-3.63-5-1.73-2,3s-3.2-.64-7.27-4.18a38.69,38.69,0,0,0-2.64,3.15c-1.21,1.58-2.69,3.65-4.58,6.39-4.07,5.94-11,16.28-14.84,22.69h0a28.74,28.74,0,0,0-2.66,5.13C514.44,152.67,517.42,158.45,525.51,164.89Z" transform="translate(-515.1 -34.98)"/><path class="cls-10" d="M604.47,133.74a42.27,42.27,0,0,0-1-10.63c10.79,6.27,22.43,7.11,27.4,7.15.16-2.71.3-5.09.41-7,0-.18,0-.38,0-.57a48.26,48.26,0,0,1-29.14-3.06A141.47,141.47,0,0,1,604.47,133.74Z" transform="translate(-515.1 -34.98)"/><path class="cls-10" d="M546.47,193.95c-4.05,12.43,0,26.25,0,26.25l1.68-2.94,4.43-7.79s4.31,13.79,6.89,16.31c-.46-6.69-1.18-19.78-.55-29.52.88-13.65,7.92-16.84,8.55-27.3s-3.05-18.93-8.55-26.2S553.5,124,553.5,124s-2.05,2.22-8.11,8.9a93.69,93.69,0,0,0-10.8,15.28c4.79-3,14.86-13.37,14.86-13.37.33,3.3,8.92,17.17,11.45,23.61a12.56,12.56,0,0,1,.27,8.61,10.82,10.82,0,0,1-1.32,2.78s-.34.43-.92,1.21C556.48,174.34,549.76,183.9,546.47,193.95Z" transform="translate(-515.1 -34.98)"/><path class="cls-10" d="M537.35,115.31c16.32,8.13,44.63,7.8,56.59,4.33a34,34,0,0,0,19-13.52,29,29,0,0,1-3.79,3l-3.55-2.47-3.13,2.47,3.22,3.3a73.38,73.38,0,0,1-7,3.06L597,113s-4.78,2.31-6.93,2.48l.66,4.21-6.6,1.16L583,116.75,575.19,118l-.57,3.71-7.13-.41.36-3.63-6.59-1.24-1.59,3.8a47.43,47.43,0,0,1-6.68-1.49l1.24-3.63-5-1.73-2,3s-3.2-.64-7.27-4.18A38.69,38.69,0,0,0,537.35,115.31Z" transform="translate(-515.1 -34.98)"/><path class="cls-9" d="M541,69a7,7,0,0,0,3.63,5.2,9.52,9.52,0,0,0,7.11.93l0,0c.23-.36,2.09-3.25,4.32-6.46,1.26-1.8,2.63-3.71,3.9-5.33a29.51,29.51,0,0,1,2.65-3l.11-.1c3.47-3.32,5.24-4.81,9.15-4.87a12.79,12.79,0,0,1,9.25,3.5l.09.09a17,17,0,0,0-.85-9c-1.82-4.13-6-7.19-9.17-2.48a11.23,11.23,0,0,0-12.55-.66A27,27,0,0,0,556,48.69C549.88,53.48,543.32,62.14,541,69Z" transform="translate(-515.1 -34.98)"/><path class="cls-10" d="M541,69a7,7,0,0,0,3.63,5.2,9.52,9.52,0,0,0,7.11.93l0,0c.23-.36,2.09-3.25,4.32-6.46,1.26-1.8,2.63-3.71,3.9-5.33-2.75-3.07-4.49-8.19-4-14.65C549.88,53.48,543.32,62.14,541,69Z" transform="translate(-515.1 -34.98)"/><path class="cls-7" d="M549.69,227.3c1.88,11.33,8.59,27.9,8.59,27.9s-4.79,5.12-4.79,19.32c0,12.54,8.11,34.6,10,39.59l1.32.16,6.85.85c.15-2.71,2-35.38,2.3-48.2.2-8.15,1.08-26.31,1.73-39.29,0-.31,0-.61,0-.91-3.15-4.44-8.45-12.8-8.45-12.8a74.58,74.58,0,0,1-4,8.87c-1.16,2.06-2.36,3.6-3.26,3.36h0c-2.48-.82-7.43-16.67-7.43-16.67l-4.43,7.79C548.44,219.44,548.91,222.66,549.69,227.3Z" transform="translate(-515.1 -34.98)"/><path class="cls-7" d="M600.87,269.57c-1.44,13.23,3.51,38.36,4.81,44.63l3.15.89,5.8,1.64c.41-2.42,2.62-15.41,4.4-24.59,2.44-12.52,9.24-41.05,8.25-43.86s-5.45-17-8.55-22.32l-.71-1.1c-4.58-2.79-11.44-7-15.09-9.27,0,0-.33,2.19-.8,4.86-.22,1.24-.47,2.57-.73,3.85-.61,3-1.28,5.68-1.78,5.82-1.16.33-15-15.19-15-15.19s-1,2.53-2.23,5.49c7.94,9.43,28.28,29.13,28.28,29.13C608.35,252.18,602.52,254.38,600.87,269.57Z" transform="translate(-515.1 -34.98)"/><path class="cls-11" d="M600.87,269.57c-1.44,13.23,3.51,38.36,4.81,44.63l3.15.89c-.9-5.36-3.43-22.94-1.08-39.13,2.81-19.38,7.48-24.44,7.48-24.44-.88-2.27-8.31-15.46-13.82-27.23-.61,3-1.28,5.68-1.78,5.82-1.16.33-15-15.19-15-15.19s-1,2.53-2.23,5.49c7.94,9.43,28.28,29.13,28.28,29.13C608.35,252.18,602.52,254.38,600.87,269.57Z" transform="translate(-515.1 -34.98)"/><path class="cls-11" d="M563.32,222.8a23.84,23.84,0,0,1,3.76-2.1l8.61,6.94c0-.31,0-.61,0-.91-3.15-4.44-8.45-12.8-8.45-12.8A74.58,74.58,0,0,1,563.32,222.8Z" transform="translate(-515.1 -34.98)"/><path class="cls-11" d="M549.69,227.3c1.88,11.33,8.59,27.9,8.59,27.9s-4.79,5.12-4.79,19.32c0,12.54,8.11,34.6,10,39.59l1.32.16c-1.09-5.31-3.64-18.46-5-31.05-1.76-16.3,2.13-27.31,2.13-27.31-2.72-8.14-2.13-29.17-2.13-29.17a4.42,4.42,0,0,1,.24-.59h0c-2.48-.82-7.43-16.67-7.43-16.67l-4.43,7.79C548.44,219.44,548.91,222.66,549.69,227.3Z" transform="translate(-515.1 -34.98)"/><path class="cls-5" d="M539,111.22c.35.34.69.65,1,.94,4.06,3.54,7.27,4.18,7.27,4.18l2-3,5,1.73L553,118.74a47.43,47.43,0,0,0,6.68,1.49l1.59-3.8,6.59,1.24-.36,3.63,7.13.41.57-3.71,7.77-1.24,1.15,4.14,6.6-1.16-.66-4.21c2.15-.16,6.93-2.48,6.93-2.48l1.65,2.48a73.38,73.38,0,0,0,7-3.06l-3.22-3.3,3.13-2.47,3.55,2.47a43.66,43.66,0,0,0,5.52-4.63l.59-.57a54.46,54.46,0,0,0-17.83-6.11c-.5-.07-1.1-.13-1.76-.18-5.71-.48-16.82-.48-16.82-.48-.74-.33-2.47-3.71-2.82-6.55h0c-3.57-.48-7.41-1.66-9.47-3.57,1,5.23-2.31,11.78-2.31,11.78-1.34.64-5.67,2.22-9.89,3.68-2.85,1-5.65,1.9-7.44,2.43C542.42,106.27,539,111.22,539,111.22Z" transform="translate(-515.1 -34.98)"/><path class="cls-12" d="M554.32,102.52c15.64,1.88,34.71-2.21,41.32-4.85-4.37-.37-11.88-.45-15.18-.47h-1.64a2.66,2.66,0,0,1-.83-1l-.17-.29a15.53,15.53,0,0,1-1.82-5.3h0c-3.57-.48-7.41-1.66-9.47-3.57.73,3.86-.88,8.45-1.77,10.58,0,.11-.08.22-.13.32-.24.56-.4.89-.4.89-.29.14-.72.32-1.26.53h0l-.56.22h0C560.39,100.38,557.33,101.48,554.32,102.52Z" transform="translate(-515.1 -34.98)"/><polygon class="cls-4" points="51.42 52.08 51.42 52.07 51.42 52.08 51.42 52.08"/><path class="cls-13" d="M567.47,69.76c2.11-.49,4.6-.57,4.6-1.71s-2.19-2.46-3.9-1.49a18,18,0,0,0-3.84,3.64A22.33,22.33,0,0,0,567.47,69.76Z" transform="translate(-515.1 -34.98)"/><path class="cls-13" d="M579.25,66.45c-1-.68.23-3.21,1.8-4.12a5.39,5.39,0,0,1,3.64-.35s-1.47,1.61-2.48,2.65S580,67,579.25,66.45Z" transform="translate(-515.1 -34.98)"/><path class="cls-12" d="M707.7,42.67c5.66-1.82,9.91,6.92,13.7,17.63,3.31,9.34,3.8,20.05.83,21.54-1.37.68-3.43-1.19-5.61-4.31a68.62,68.62,0,0,1-7.11-14,55.79,55.79,0,0,1-3.38-14.18C705.85,45.73,706.3,43.12,707.7,42.67Z" transform="translate(-515.1 -34.98)"/><path class="cls-7" d="M627.37,183.05l6.68,2.64s4.79-8.92,12.22-21.79c4.87-8.45,11.31-17.81,15.16-23.26,2-2.86,3.33-4.64,3.33-4.64s2.64,5.28,8.92,22.13l.19.51A229.46,229.46,0,0,1,683.1,192l4.46,1.32c1-2.35,2-9,2.78-17.74,1.26-13.87,1.91-32.9.69-47.81-2-24.27-4.29-54.77-4.62-55.16l-5.29.65s-4.26,6.48-21.59,7.63-23.87-2.43-23.87-2.43l-3.2.38L631,79s.64,18.08.52,33.12c0,4.1-.13,8-.3,11.19-.1,1.9-.24,4.28-.41,7C629.7,148.92,627.37,183.05,627.37,183.05Z" transform="translate(-515.1 -34.98)"/><path class="cls-9" d="M681.11,65.07c0,2.09.38,6.13.57,8.15l4.86-.46L686.21,64C684.62,64.38,682.91,64.73,681.11,65.07Z" transform="translate(-515.1 -34.98)"/><path class="cls-9" d="M631,79h0l4.6-.55a42.32,42.32,0,0,1,.36-5.51l-5.31,1A18.3,18.3,0,0,0,631,79Z" transform="translate(-515.1 -34.98)"/><path class="cls-4" d="M653.46,69.87c-1-.88,1-3.85,4-3.19s7.51,3.63,6.81,4.73-4,.11-6.81-1S653.46,69.87,653.46,69.87Z" transform="translate(-515.1 -34.98)"/><path class="cls-12" d="M551.84,49.59a4.6,4.6,0,0,1,1.66-3.15,2.9,2.9,0,0,1,2.21-.68c2.6.37,3.63,4.46,2.31,6.36s-5.2,1.9-6-.91A4.35,4.35,0,0,1,551.84,49.59Z" transform="translate(-515.1 -34.98)"/><path class="cls-5" d="M607.15,324.39l-3,11.39H630.1c-6.77-5.94-16.68-9.57-16.68-9.57a88,88,0,0,1,2.64-9.08l-1.42-.4-5.51-1.55-3.44-1-2.5-.71Z" transform="translate(-515.1 -34.98)"/><path class="cls-5" d="M564.38,324.64l-2.31,11.14H586l-13.87-10.4s1.49-9.57,1-10.07l-1.49-.18-8.17-1h-.09l-5-.61Z" transform="translate(-515.1 -34.98)"/><path class="cls-14" d="M558.93,171a128.39,128.39,0,0,1,21.46,2.09c9.12,1.72,16.65,3.39,19.88,4.13-1.09-1.94-1.79-3.14-1.79-3.14l.18-.85c-5.94-2-26.55-7.22-37.49-6.23a10.82,10.82,0,0,1-1.32,2.78S559.51,170.27,558.93,171Z" transform="translate(-515.1 -34.98)"/><path class="cls-14" d="M586.27,174.29c4,6.89,10.2,23.73,10.31,35.18,0,0-2.72-1.65-5.16-1.32,0,0-2.48-14-5.16-21.79a147.68,147.68,0,0,0-5.65-14Z" transform="translate(-515.1 -34.98)"/><path class="cls-12" d="M607.15,324.39l-3,11.39h3.59a53.83,53.83,0,0,0,1.37-8.53V315.17l-3.44-1-2.5-.71Z" transform="translate(-515.1 -34.98)"/><path class="cls-12" d="M564.38,324.64l-2.31,11.14h3.88c.53-3.78,1.13-8.16,1.13-8.53,0-.64-1.88-5.67-3.67-13.14h0l-5-.61Z" transform="translate(-515.1 -34.98)"/><path class="cls-11" d="M673.87,158.63A229.46,229.46,0,0,1,683.1,192l4.46,1.32c1-2.35,2-9,2.78-17.74-1.15-1.11-2.42-2.25-3.79-3.44A100.62,100.62,0,0,1,673.87,158.63Z" transform="translate(-515.1 -34.98)"/><path class="cls-11" d="M627.37,183.05l6.68,2.64s4.79-8.92,12.22-21.79c4.87-8.45,11.31-17.81,15.16-23.26-14.55-23.75-25.31-50.8-29-61.83L631,79s.64,18.08.52,33.12c0,4.1-.13,8-.3,11.19-.1,1.9-.24,4.28-.41,7C629.7,148.92,627.37,183.05,627.37,183.05Z" transform="translate(-515.1 -34.98)"/><path class="cls-8" d="M602.14,220.44l16.59,5.51-.71-1.1c-4.58-2.79-11.44-7-15.09-9.27C602.94,215.58,602.61,217.76,602.14,220.44Z" transform="translate(-515.1 -34.98)"/><path class="cls-10" d="M525.51,164.89c8.09,6.44,19.89,12.11,19.89,12.11a7.22,7.22,0,0,0,2.07-1.23c-19.93-10.26-27.31-25.42-29.54-31.36a28.74,28.74,0,0,0-2.66,5.13C514.44,152.67,517.42,158.45,525.51,164.89Z" transform="translate(-515.1 -34.98)"/><path class="cls-13" d="M548,94.22c2.09,2.09,8,2.76,12.88,1.76a13.33,13.33,0,0,0,3.57-1.22c1.82-1,3-2.4,3-4.35a7.22,7.22,0,0,0-1-3.35c-2.75-5.17-6.14-11.08-6-16a31.49,31.49,0,0,1,1-6.45c.49-2,1-3.65,1.28-4.37l-.11.1a61.49,61.49,0,0,0-6.1,7.75c-2.42,3.46-4.52,6.71-4.76,7.09s-.31.69-.45,1C548.36,83.43,545.94,92.13,548,94.22Z" transform="translate(-515.1 -34.98)"/><path class="cls-15" d="M548,94.22c2.09,2.09,8,2.76,12.88,1.76a13.33,13.33,0,0,0,3.57-1.22c-.72-2.45-3.24-5.17-5.89-8.06-3.86-4.23-5.67-10.56-2-18.66-2.42,3.46-4.52,6.71-4.76,7.09s-.31.69-.45,1C548.36,83.43,545.94,92.13,548,94.22Z" transform="translate(-515.1 -34.98)"/><path class="cls-16" d="M560.5,71v.26c0,4.9,3.32,10.69,6,15.78,1.93,1.8,5.45,3,8.82,3.48C565.46,83,563,70.2,562.18,62A37,37,0,0,0,560.5,71Z" transform="translate(-515.1 -34.98)"/><path class="cls-4" d="M545.39,177a13.93,13.93,0,0,0,5.39,5.39c3.85,2.2,13.65,2.2,14.31,1.43a.64.64,0,0,0,.12-.22c.22-.72-1.05-1.64-1.2-1.75l2.52,1c3.85,1.21,3.08.1.33-3.42s-5.4-3.74-5.4-3.74-1-.55,2-.66,7.87,3,8.57,2c1.08-1.54-6.64-6.05-10.61-5.95a13.55,13.55,0,0,0-6.6,1.88,5.62,5.62,0,0,1-2.09-1.88,11.11,11.11,0,0,0-3.3,2.21c-.87.73-1.68,1.46-2.35,2.09C546.08,176.3,545.39,177,545.39,177Z" transform="translate(-515.1 -34.98)"/><path class="cls-16" d="M545.39,177a13.93,13.93,0,0,0,5.39,5.39c3.85,2.2,13.65,2.2,14.31,1.43a.64.64,0,0,0,.12-.22,29.24,29.24,0,0,1-11-2.33,25.52,25.52,0,0,1-7.07-5.92C546.08,176.3,545.39,177,545.39,177Z" transform="translate(-515.1 -34.98)"/><path class="cls-4" d="M665.84,73c2.37,1,4.36,3,3.77,4s-4.25-.61-4.25-.61S668,78.56,667,80s-5.42-.78-5.42-.78,2.73,1.94,1.87,3.26-4.39.37-7.27-2-2.42-4.84.49-3.4c0,0-2.29-4.2,2.88-3C659.58,74,658.3,69.81,665.84,73Z" transform="translate(-515.1 -34.98)"/><path class="cls-17" d="M721.32,82.11a.16.16,0,0,0,0-.33c-2.21-.06-7.07-8.44-10.57-15.61-3.76-7.72-4.41-16.8-4.52-19.4a.17.17,0,0,0-.16-.16h0a.17.17,0,0,0-.16.17c.11,2.62.77,11.75,4.56,19.53,1.28,2.62,7.81,15.72,10.86,15.79Z" transform="translate(-515.1 -34.98)"/><path class="cls-17" d="M710.68,55c-1.14-5.34-.17-5.77.15-5.91a.67.67,0,0,1,.28-.06c2.71,0,8.61,18.61,9.13,24.27.09,1,.12,2.35-.65,2.49h-.12C717.13,75.78,712.14,61.83,710.68,55Zm.38-5.39c-.14.06-.82.62.17,5.27,2,9.36,6.91,20.34,8.23,20.34h0s.34-.11.18-1.88c-.63-6.88-6.7-23.74-8.6-23.74Z" transform="translate(-515.1 -34.98)"/><path class="cls-17" d="M712.9,75.65a.17.17,0,0,0,.14-.08.17.17,0,0,0-.06-.23c-.07,0-7.26-4.3-20.77-3.14s-21.37,2-21.45,2a.16.16,0,1,0,0,.33c.08,0,8-.85,21.44-2a45,45,0,0,1,15.36,1.11,21.9,21.9,0,0,1,5.2,2Z" transform="translate(-515.1 -34.98)"/><path class="cls-17" d="M590.5,84h0l37.79-4.57a.16.16,0,1,0,0-.33L590.48,83.7a.16.16,0,0,0-.14.18A.17.17,0,0,0,590.5,84Z" transform="translate(-515.1 -34.98)"/><path class="cls-17" d="M584.78,79c.75,0,1.29,0,1.35,0a.16.16,0,0,0,.14-.09.17.17,0,0,0,0-.16c-1.54-2.42-7.17-9.51-7.23-9.59a.17.17,0,0,0-.23,0,.17.17,0,0,0,0,.23c.06.07,5.33,6.72,7.05,9.32a16.23,16.23,0,0,1-5.15-.49.17.17,0,0,0-.11.31A13.82,13.82,0,0,0,584.78,79Z" transform="translate(-515.1 -34.98)"/><path class="cls-17" d="M564.62,98a22.76,22.76,0,0,0,3.22.22A25.81,25.81,0,0,0,578,96.23l-.17-.29a27,27,0,0,1-13.07,1.7C564.71,97.75,564.67,97.86,564.62,98Z" transform="translate(-515.1 -34.98)"/><path class="cls-17" d="M562.39,99.6a27,27,0,0,0,5.47.55,28.42,28.42,0,0,0,12.59-3h-.75A28,28,0,0,1,563,99.38h0Z" transform="translate(-515.1 -34.98)"/><path class="cls-17" d="M581.34,146a184,184,0,0,1-1.88,23.31.16.16,0,0,0,.14.18h0a.17.17,0,0,0,.17-.14A186.15,186.15,0,0,0,581.67,146c0-11.09-1.13-21.11-3.23-28.48l-.33.05C580.21,124.88,581.35,134.88,581.34,146Z" transform="translate(-515.1 -34.98)"/><path class="cls-17" d="M568.54,140.36a13.4,13.4,0,0,0,2.24-.18c5.16-.89,20.56-2.64,25.81-3.19a.17.17,0,0,0,.15-.18.17.17,0,0,0-.18-.15c-5.26.55-20.67,2.3-25.84,3.19s-11.47-1.8-14-3.93a.17.17,0,0,0-.21.25A21,21,0,0,0,568.54,140.36Z" transform="translate(-515.1 -34.98)"/><path class="cls-17" d="M623.74,129.93a.17.17,0,0,0,0-.33c-.11,0-11.48-1.26-20.18-6.6l-1.28-4a.17.17,0,0,0-.21-.11.16.16,0,0,0-.1.21l1.29,4a.17.17,0,0,0,.07.09c8.77,5.41,20.25,6.66,20.37,6.67Z" transform="translate(-515.1 -34.98)"/><path class="cls-17" d="M599.74,168a.16.16,0,0,0,.16-.14c0-.2,3.47-20,4.51-28.41a52.64,52.64,0,0,0-.81-16.39.16.16,0,1,0-.32.08,52.41,52.41,0,0,1,.8,16.28c-1,8.43-4.47,28.2-4.5,28.4a.16.16,0,0,0,.13.19Z" transform="translate(-515.1 -34.98)"/><path class="cls-17" d="M560.9,158.61h0a.16.16,0,0,0,.11-.2,52.16,52.16,0,0,0-3.65-7.53l-2-3.7c-3.3-6.26-5.82-12.34-5.85-12.4a.17.17,0,0,0-.12-.1.16.16,0,0,0-.15,0c-.05.05-5.09,5-6.93,6.8s-7.85,6.52-7.91,6.57a.16.16,0,1,0,.2.26c.06,0,6.09-4.83,7.94-6.58,1.65-1.56,5.86-5.73,6.76-6.63.49,1.16,2.82,6.61,5.77,12.2l2,3.7a52.15,52.15,0,0,1,3.63,7.47A.16.16,0,0,0,560.9,158.61Z" transform="translate(-515.1 -34.98)"/><path class="cls-17" d="M549.45,135a.17.17,0,0,0,.16-.12c0-.11,2.89-11.34,1.62-17.9a.16.16,0,0,0-.19-.13.17.17,0,0,0-.13.19c1.25,6.49-1.59,17.65-1.62,17.76a.17.17,0,0,0,.12.2Z" transform="translate(-515.1 -34.98)"/><path class="cls-17" d="M515.27,149.7a.16.16,0,0,0,.16-.15c.09-1.15,2.17-4.43,4.37-7.9.53-.84,1.08-1.7,1.61-2.55,2.7-4.33,13.9-20.73,16.07-23.69a.16.16,0,0,0,0-.23.16.16,0,0,0-.23,0c-2.18,3-13.39,19.37-16.09,23.71l-1.61,2.55c-2.32,3.66-4.32,6.81-4.42,8a.16.16,0,0,0,.15.18Z" transform="translate(-515.1 -34.98)"/><path class="cls-17" d="M567.55,183.88a.16.16,0,0,0,.15-.09.17.17,0,0,0-.07-.22c-.08,0-7.66-3.89-10.27-5.28a.17.17,0,1,0-.16.29c2.61,1.39,10.2,5.25,10.28,5.29Z" transform="translate(-515.1 -34.98)"/><path class="cls-17" d="M561.31,184.5c2.06,0,3.68-.2,3.92-.59.44-.72-.26-1.66-.29-1.7a.17.17,0,0,0-.23,0,.17.17,0,0,0,0,.23s.59.8.27,1.32-5.29.72-9.62-.08a14.53,14.53,0,0,1-9.74-6.64,37.48,37.48,0,0,1,4-3.63.17.17,0,0,0-.2-.26,38.52,38.52,0,0,0-4.09,3.76.16.16,0,0,0,0,.19,14.84,14.84,0,0,0,10,6.91A35.54,35.54,0,0,0,561.31,184.5Z" transform="translate(-515.1 -34.98)"/><path class="cls-17" d="M545.39,177.16a.17.17,0,0,0,.07-.32,136.28,136.28,0,0,1-12.61-7,.16.16,0,1,0-.18.27,137.26,137.26,0,0,0,12.65,7Z" transform="translate(-515.1 -34.98)"/><path class="cls-17" d="M572.07,177.16a.16.16,0,0,0,.16-.15,2,2,0,0,0-.59-1.48c-1.76-2.12-7-4.46-9.68-4.65-3.21-.24-7,1.81-7.18,1.9a.16.16,0,1,0,.16.29s3.89-2.08,7-1.86c2.53.18,7.77,2.5,9.45,4.53a1.74,1.74,0,0,1,.52,1.23.16.16,0,0,0,.14.18Z" transform="translate(-515.1 -34.98)"/><path class="cls-17" d="M590.05,115.68h0a29.28,29.28,0,0,0,6.85-2.43l1.57,2.35a.17.17,0,0,0,.2.06l7-3.06a.16.16,0,0,0,.05-.27l-3.09-3.17,2.89-2.28,3.45,2.4a.16.16,0,0,0,.17,0c1.87-1,6-5.05,6.14-5.22a.17.17,0,1,0-.23-.24s-4.11,4-6,5.12l-3.47-2.41a.16.16,0,0,0-.2,0L602.34,109a.16.16,0,0,0-.06.12.17.17,0,0,0,0,.12l3,3.13-6.67,2.91-1.58-2.36a.16.16,0,0,0-.21-.06,30.51,30.51,0,0,1-6.89,2.46.16.16,0,0,0,0,.33Z" transform="translate(-515.1 -34.98)"/><path class="cls-17" d="M574.62,121.87a.16.16,0,0,0,0-.33l-7-.4.35-3.46a.16.16,0,0,0-.14-.18c-.06,0-5.68-.94-6.56-1.24a.17.17,0,0,0-.2.09L559.57,120c-.77-.1-4.93-.68-6.51-1.46a.17.17,0,0,0-.22.08.16.16,0,0,0,.08.22c1.78.88,6.53,1.48,6.74,1.51a.16.16,0,0,0,.17-.1l1.54-3.67c1.13.31,5.43,1,6.31,1.18l-.35,3.48a.16.16,0,0,0,0,.12.17.17,0,0,0,.12.06l7.13.41Z" transform="translate(-515.1 -34.98)"/><path class="cls-17" d="M622.59,227.79a.18.18,0,0,0,.1,0,.17.17,0,0,0,.05-.18c-.06-.19-6.58-19.38-10.91-28.37-4.41-9.18-12.39-23.72-13.21-25.15a.17.17,0,1,0-.29.16c.82,1.43,8.79,16,13.2,25.13,4,8.23,9.75,25,10.74,27.9l-10.74-6.55a.17.17,0,0,0-.23.06.16.16,0,0,0,.05.23l11.13,6.79Z" transform="translate(-515.1 -34.98)"/><path class="cls-17" d="M546.47,220.37h0a.17.17,0,0,0,.12-.2c-2.17-7.85-2.36-18-.47-24.58a65.6,65.6,0,0,1,5.51-12.93.17.17,0,0,0-.06-.23.17.17,0,0,0-.23.06,65.86,65.86,0,0,0-5.54,13c-1.9,6.67-1.71,16.85.47,24.76A.16.16,0,0,0,546.47,220.37Z" transform="translate(-515.1 -34.98)"/><path class="cls-17" d="M595.08,176.29a.17.17,0,0,0,0-.33c-.13,0-12.94-2.91-20.65-3.82a.16.16,0,0,0-.18.14.17.17,0,0,0,.14.18c7.69.91,20.49,3.79,20.61,3.81Z" transform="translate(-515.1 -34.98)"/><path class="cls-17" d="M592.1,187.94h0a.16.16,0,0,0,.11-.2,98.6,98.6,0,0,0-5.89-13.53.17.17,0,0,0-.22-.07.16.16,0,0,0-.07.22,98.62,98.62,0,0,1,5.87,13.48A.16.16,0,0,0,592.1,187.94Z" transform="translate(-515.1 -34.98)"/><path class="cls-17" d="M625,332.18a.17.17,0,0,0,.09-.3c-3.28-2.31-10.41-5.32-11.48-5.77l1.78-6.44a.16.16,0,0,0-.12-.2.17.17,0,0,0-.2.12l-1.82,6.58a.16.16,0,0,0,.1.2c.08,0,8,3.32,11.55,5.79A.15.15,0,0,0,625,332.18Z" transform="translate(-515.1 -34.98)"/><path class="cls-17" d="M562.07,335.94h18.55a.16.16,0,0,0,.16-.16.17.17,0,0,0-.16-.16H562.27l2.27-10.94a.16.16,0,0,0,0-.11l-5.94-11.15a.17.17,0,0,0-.22-.07.17.17,0,0,0-.07.23l5.92,11.1-2.3,11.08a.16.16,0,0,0,0,.14A.17.17,0,0,0,562.07,335.94Z" transform="translate(-515.1 -34.98)"/><path class="cls-17" d="M559.85,63.7a.16.16,0,0,0,.12-.05c.55-.59,1.07-1.15,1.57-1.7,3.25-3.57,5.59-6.14,10.38-6.45A12.69,12.69,0,0,1,581.13,59a.17.17,0,0,0,.16,0,.16.16,0,0,0,.12-.13,17.93,17.93,0,0,0-.86-9.06c-1.15-2.8-3.17-4.74-5.16-5-1.07-.11-2.65.19-4.19,2.31a10.81,10.81,0,0,0-8.45-2.1.16.16,0,0,0,.07.32,10.53,10.53,0,0,1,8.31,2.14.16.16,0,0,0,.24,0c1.17-1.67,2.55-2.48,4-2.31,1.87.21,3.79,2.08,4.89,4.76a17.47,17.47,0,0,1,.89,8.56,12.94,12.94,0,0,0-9.24-3.42c-4.92.32-7.43,3.07-10.61,6.56l-1.56,1.7a.17.17,0,0,0,0,.23A.17.17,0,0,0,559.85,63.7Z" transform="translate(-515.1 -34.98)"/><path class="cls-17" d="M555.34,53.6a3.47,3.47,0,0,0,2.7-1.05,3.57,3.57,0,0,0,.69-3A5.4,5.4,0,0,0,556.9,46a2.24,2.24,0,0,0-1.72-.43.16.16,0,0,0,.06.32,1.89,1.89,0,0,1,1.47.37,5.09,5.09,0,0,1,1.71,3.34,3.26,3.26,0,0,1-.61,2.72,3.21,3.21,0,0,1-2.59.94c-.09,0-.17.07-.17.16a.16.16,0,0,0,.16.17Z" transform="translate(-515.1 -34.98)"/><path class="cls-17" d="M549.23,75.65a8.79,8.79,0,0,0,2.61-.37.17.17,0,1,0-.11-.31,9,9,0,0,1-7-.88c-3.16-1.91-4.11-4.25-2.82-7a.16.16,0,0,0-.08-.22.17.17,0,0,0-.22.08c-1.37,2.88-.38,5.37,2.95,7.38A9,9,0,0,0,549.23,75.65Z" transform="translate(-515.1 -34.98)"/><path class="cls-17" d="M666,80.45a1.42,1.42,0,0,0,1.15-.38c.65-.85-.53-2.46-1.24-3.29,1.21.43,3.49,1.11,3.83.28a1.36,1.36,0,0,0-.26-1.11,10,10,0,0,0-6.7-4.24c-1.51-.2-2.54,0-3.08.64a1.93,1.93,0,0,0-.31,1.7.17.17,0,0,0,.2.11.16.16,0,0,0,.11-.2,1.61,1.61,0,0,1,.24-1.39c.45-.53,1.41-.71,2.78-.52a9.81,9.81,0,0,1,6.45,4.07,1.16,1.16,0,0,1,.24.81c-.22.53-2.54-.1-4-.7a.16.16,0,0,0-.2.06.16.16,0,0,0,0,.2c.66.68,2.24,2.62,1.67,3.37s-3.48-.15-5.23-.83a.16.16,0,1,0-.12.31A15.86,15.86,0,0,0,666,80.45Z" transform="translate(-515.1 -34.98)"/><path class="cls-5" d="M686.38,187.81c-.08-.3-8.45-30.42-13.67-41.1l-9.29-19c-1.67,2.4-15.82,22.82-20.14,31-4.57,8.64-9.76,18.27-9.81,18.37a.17.17,0,0,1-.15.09c-.08,0-.17-.07-.17-.16a.15.15,0,0,1,0-.07c.17-1.69,4.21-42.93,4.69-60.51.49-17.86-.32-32.4-.33-32.55a.18.18,0,0,1,.06-.14.17.17,0,0,1,.15,0,76.65,76.65,0,0,0,18.35,2.53c1.59,0,3.13-.07,4.57-.22A93.92,93.92,0,0,0,682,80.87a.16.16,0,0,1,.18,0,.17.17,0,0,1,0,.14c0,.22.26,2.2.62,4.92,1.4,10.44,4.66,34.9,5.17,52.13.65,22.07-1.33,49.39-1.35,49.67a.17.17,0,0,1-.15.15h0A.16.16,0,0,1,686.38,187.81ZM660.69,86.35a45.88,45.88,0,0,1-4.6.22,77.08,77.08,0,0,1-18.22-2.48c.1,1.92.77,15.69.32,32.35-.45,16.49-4,53.76-4.61,59.76,1.29-2.41,5.58-10.38,9.42-17.64,4.58-8.65,20.16-31,20.32-31.24a.16.16,0,0,1,.15-.07.17.17,0,0,1,.14.09s4.13,8.42,9.41,19.24c4.71,9.65,12,35.08,13.43,40.24.34-5,1.87-29,1.28-48.68-.51-17.22-3.77-41.66-5.17-52.1-.42-3.15-.57-4.32-.61-4.77A94.1,94.1,0,0,1,660.69,86.35Z" transform="translate(-515.1 -34.98)"/><path class="cls-12" d="M527.9,59.73l.29.36h.09a2.83,2.83,0,0,0,1.06-.2c1.88-.73,2.89-3.41,4-6.25s2.15-5.68,4.13-7.09c4.87-3.46,14.34-.91,15.92,0l0,0a.18.18,0,0,0,.23-.05.18.18,0,0,0-.05-.23,5.86,5.86,0,0,0-.94-.43h0c-3-1.14-10.95-2.73-15.38.42-2.07,1.47-3.18,4.4-4.25,7.24s-2,5.38-3.77,6.06A2.62,2.62,0,0,1,527.9,59.73Z" transform="translate(-515.1 -34.98)"/><path class="cls-12" d="M528.56,60.46a3.25,3.25,0,0,0,.27.25c2.1-.84,4.09-3.47,6.16-6.21a28.07,28.07,0,0,1,5.1-5.69c4.07-2.93,9-1.6,12.13-.7a3.06,3.06,0,0,1,.15-.3c-3.15-.92-8.24-2.32-12.48.73a28.22,28.22,0,0,0-5.17,5.75C532.64,57.07,530.64,59.72,528.56,60.46Z" transform="translate(-515.1 -34.98)"/><path class="cls-12" d="M531,62a9.45,9.45,0,0,0,2.68.67c4.8-.17,7.21-4.81,9.09-8.43.13-.26.27-.52.4-.77a6.93,6.93,0,0,1,5.89-3.8,5.12,5.12,0,0,1,1.6-.24,6.44,6.44,0,0,1,1.2.11,2.25,2.25,0,0,1,0-.22c-2.8-.15-6.81-.19-9,4l-.4.77C540.18,58.49,537.41,63.83,531,62Z" transform="translate(-515.1 -34.98)"/><ellipse class="cls-17" cx="575.13" cy="73.34" rx="0.91" ry="2.76" transform="translate(-467.32 279.3) rotate(-31.82)"/><ellipse class="cls-17" cx="582.71" cy="69.71" rx="0.91" ry="2.76" transform="translate(-464.2 282.91) rotate(-31.84)"/><path class="cls-17" d="M539,111.39a.17.17,0,0,0,.14-.07c2.77-4,5.76-5.31,9.68-6.78s7.11-2.39,7.14-2.39a.17.17,0,0,0-.09-.32s-3.28.95-7.16,2.4-7,2.86-9.83,6.9a.16.16,0,0,0,0,.23A.16.16,0,0,0,539,111.39Z" transform="translate(-515.1 -34.98)"/><path class="cls-17" d="M582.71,85h0l1.65-.2a.17.17,0,0,0,.14-.18.16.16,0,0,0-.18-.14l-1.36.17a5.52,5.52,0,0,1,1.14-1.44.17.17,0,1,0-.22-.25,5.35,5.35,0,0,0-1.34,1.84.17.17,0,0,0,0,.16A.17.17,0,0,0,582.71,85Z" transform="translate(-515.1 -34.98)"/><path class="cls-17" d="M717.66,54.77l.09,0c2.5-1.62,10.05-8.59,10.37-8.89a.16.16,0,0,0-.22-.24c-.08.07-7.85,7.26-10.33,8.86a.17.17,0,0,0,0,.23A.16.16,0,0,0,717.66,54.77Z" transform="translate(-515.1 -34.98)"/><path class="cls-17" d="M715.21,63.7h.05l9.94-3.34a.17.17,0,0,0,.1-.21.16.16,0,0,0-.21-.1l-9.94,3.34a.17.17,0,0,0,.05.32Z" transform="translate(-515.1 -34.98)"/><path class="cls-17" d="M732.19,72.74a.16.16,0,0,0,.16-.15.17.17,0,0,0-.15-.18c-1.74-.18-10.77-1.61-10.86-1.62a.17.17,0,0,0-.19.14.16.16,0,0,0,.14.19c.09,0,9.14,1.45,10.88,1.63Z" transform="translate(-515.1 -34.98)"/></g></svg>